{
  "accessors": [
    {
      "bufferView": 3,
      "componentType": 5126,
      "count": 569,
      "max": [
        1.063504695892334,
        4.496706008911133,
        4.572420120239258
      ],
      "min": [
        -1.063504695892334,
        -0.028418438509106636,
        -4.617091655731201
      ],
      "type": "VEC3"
    },
    {
      "bufferView": 3,
      "byteOffset": 6828,
      "componentType": 5126,
      "count": 569,
      "max": [
        0.9999985098838806,
        0.9983111619949341,
        0.9999821186065674
      ],
      "min": [
        -0.999997615814209,
        -1.0,
        -0.9986525177955627
      ],
      "type": "VEC3"
    },
    {
      "bufferView": 2,
      "componentType": 5126,
      "count": 569,
      "max": [
        0.9934754371643066,
        0.9819883108139038
      ],
      "min": [
        0.0013624191051349044,
        0.0
      ],
      "type": "VEC2"
    },
    {
      "bufferView": 1,
      "componentType": 5125,
      "count": 1824,
      "type": "SCALAR"
    },
    {
      "bufferView": 5,
      "componentType": 5126,
      "count": 28,
      "max": [
        100.0,
        0.3994283080101013,
        3.3435539990023244e-06,
        0.0,
        0.3994283676147461,
        100.00000762939453,
        0.9957853555679321,
        0.0,
        0.18069212138652802,
        0.9999465346336365,
        100.00000762939453,
        0.0,
        1.0231941938400269,
        4.482634544372559,
        3.081847667694092,
        1.0
      ],
      "min": [
        -1.0000001192092896,
        -0.3971720039844513,
        -5.744544750996283e-07,
        0.0,
        -0.3971720039844513,
        -0.9979692697525024,
        -1.000000238418579,
        0.0,
        -0.18045519292354584,
        -0.9957852959632874,
        -1.000000238418579,
        0.0,
        -1.029011845588684,
        -4.106872081756592,
        -5.644728183746338,
        1.0
      ],
      "type": "MAT4"
    },
    {
      "bufferView": 0,
      "componentType": 5123,
      "count": 569,
      "type": "VEC4"
    },
    {
      "bufferView": 4,
      "componentType": 5126,
      "count": 569,
      "max": [
        1.0,
        0.4998423755168915,
        0.25015631318092346,
        0.08532877266407013
      ],
      "min": [
        0.49473530054092407,
        0.0,
        0.0,
        0.0
      ],
      "type": "VEC4"
    }
  ],
  "asset": {
    "extras": {
      "author": "Wersaus33 (https://sketchfab.com/wersaus33)",
      "license": "CC-BY-4.0 (http://creativecommons.org/licenses/by/4.0/)",
      "source": "https://sketchfab.com/3d-models/cat-ps1-low-poly-rigged-78d863ba43b34a6c9fdd6c61dbf5776f",
      "title": "Cat - PS1 Low Poly (Rigged)"
    },
    "generator": "Sketchfab-15.12.0",
    "version": "2.0"
  },
  "bufferViews": [
    {
      "buffer": 0,
      "byteLength": 4552,
      "byteStride": 8,
      "name": "shortBufferViews",
      "target": 34962
    },
    {
      "buffer": 0,
      "byteLength": 7296,
      "byteOffset": 4552,
      "name": "floatBufferViews",
      "target": 34963
    },
    {
      "buffer": 0,
      "byteLength": 4552,
      "byteOffset": 11848,
      "byteStride": 8,
      "name": "floatBufferViews",
      "target": 34962
    },
    {
      "buffer": 0,
      "byteLength": 13656,
      "byteOffset": 16400,
      "byteStride": 12,
      "name": "floatBufferViews",
      "target": 34962
    },
    {
      "buffer": 0,
      "byteLength": 9104,
      "byteOffset": 30056,
      "byteStride": 16,
      "name": "floatBufferViews",
      "target": 34962
    },
    {
      "buffer": 0,
      "byteLength": 1792,
      "byteOffset": 39160,
      "name": "floatBufferViews"
    }
  ],
  "buffers": [
    {
      "byteLength": 40952,
      "uri": "scene.bin"
    }
  ],
  "images": [
    {
      "uri": "textures/Material.002_baseColor.png"
    }
  ],
  "materials": [
    {
      "doubleSided": true,
      "name": "Material.002",
      "pbrMetallicRoughness": {
        "baseColorTexture": {
          "index": 0
        },
        "metallicFactor": 0.0,
        "roughnessFactor": 0.8211145618000169
      }
    }
  ],
  "meshes": [
    {
      "name": "Cylinder_Material.002_0",
      "primitives": [
        {
          "attributes": {
            "JOINTS_0": 5,
            "NORMAL": 1,
            "POSITION": 0,
            "TEXCOORD_0": 2,
            "WEIGHTS_0": 6
          },
          "indices": 3,
          "material": 0,
          "mode": 4
        }
      ]
    }
  ],
  "nodes": [
    {
      "children": [
        1
      ],
      "matrix": [
        1.0,
        0.0,
        0.0,
        0.0,
        0.0,
        2.220446049250313e-16,
        -1.0,
        0.0,
        0.0,
        1.0,
        2.220446049250313e-16,
        0.0,
        0.0,
        0.0,
        0.0,
        1.0
      ],
      "name": "Sketchfab_model"
    },
    {
      "children": [
        2
      ],
      "matrix": [
        0.009999999776482582,
        0.0,
        0.0,
        0.0,
        0.0,
        0.0,
        0.009999999776482582,
        0.0,
        0.0,
        -0.009999999776482582,
        0.0,
        0.0,
        0.0,
        0.0,
        0.0,
        1.0
      ],
      "name": "246e2b0a801a475bae2a0a2d9f264bca.fbx"
    },
    {
      "children": [
        3
      ],
      "name": "RootNode"
    },
    {
      "children": [
        4
      ],
      "matrix": [
        100.0,
        -2.1929315074477375e-14,
        -2.5689183154264884e-14,
        0.0,
        2.5689181483931498e-14,
        98.76084895680624,
        15.693779446994347,
        0.0,
        2.1929317031195897e-14,
        -15.693779446994347,
        98.76084895680624,
        0.0,
        6.219887614938163e-14,
        280.11883544921875,
        -136.09011840820313,
        1.0
      ],
      "name": "Armature"
    },
    {
      "children": [
        5,
        7,
        6
      ],
      "name": "Object_4"
    },
    {
      "children": [
        8,
        21,
        27,
        31
      ],
      "name": "_rootJoint"
    },
    {
      "matrix": [
        100.0,
        -7.592140356551917e-22,
        2.407518929467263e-21,
        0.0,
        7.592140102036185e-22,
        100.00001002213743,
        4.217663502004144e-06,
        0.0,
        -2.407519203650278e-21,
        -4.217663503540651e-06,
        100.00001005856771,
        0.0,
        5.5651571305463726e-14,
        250.63244915201392,
        -7.93857394438632,
        1.0
      ],
      "name": "Object_6"
    },
    {
      "mesh": 0,
      "name": "Object_7",
      "skin": 0
    },
    {
      "children": [
        9
      ],
      "name": "Bone_00",
      "rotation": [
        0.6214717626571655,
        4.723269565700526e-24,
        5.115361008644278e-17,
        0.7834365367889404
      ],
      "scale": [
        1.0,
        0.9999999403953552,
        1.0
      ],
      "translation": [
        1.1581710451401603e-16,
        -0.3287994861602783,
        -0.40707701444625854
      ]
    },
    {
      "children": [
        10,
        13,
        17
      ],
      "name": "Bone.001_01",
      "rotation": [
        0.050735823810100555,
        7.251129438855375e-17,
        9.558490200567942e-17,
        0.9987121224403381
      ],
      "translation": [
        -6.617444900424222e-24,
        1.4449827671051025,
        4.440892098500626e-16
      ]
    },
    {
      "children": [
        11
      ],
      "name": "Bone.002_02",
      "rotation": [
        -0.28849247097969055,
        7.603712197105898e-18,
        -6.606864267772933e-17,
        0.9574821591377258
      ],
      "scale": [
        1.0,
        1.0,
        0.9999999403953552
      ],
      "translation": [
        3.3087224502121107e-23,
        2.303196907043457,
        0.0
      ]
    },
    {
      "children": [
        12
      ],
      "name": "Bone.003_03",
      "rotation": [
        0.19630607962608337,
        -4.910800897521139e-18,
        4.553250754256113e-17,
        0.9805426597595215
      ],
      "scale": [
        1.0,
        0.9999999403953552,
        1.0
      ],
      "translation": [
        7.940933880509066e-23,
        1.2682490348815918,
        -2.220446049250313e-16
      ]
    },
    {
      "name": "Bone.003_end_021",
      "rotation": [
        0.0,
        -0.0,
        -3.0814879110195774e-33,
        1.0
      ],
      "translation": [
        0.0,
        1.63138747215271,
        -4.440892098500626e-16
      ]
    },
    {
      "children": [
        14
      ],
      "name": "Bone.009_04",
      "rotation": [
        0.681934118270874,
        0.14210648834705353,
        -0.14636783301830292,
        0.7023873925209045
      ],
      "scale": [
        0.9999999403953552,
        1.0,
        0.9999998807907104
      ],
      "translation": [
        3.3087224502121107e-23,
        2.303196907043457,
        0.0
      ]
    },
    {
      "children": [
        15
      ],
      "name": "Bone.010_05",
      "rotation": [
        0.031195610761642456,
        0.006501862313598394,
        0.20390088856220245,
        0.978472888469696
      ],
      "scale": [
        0.9999999403953552,
        1.0,
        0.9999998211860657
      ],
      "translation": [
        -7.450580596923828e-09,
        1.4226086139678955,
        1.1333941074553877e-07
      ]
    },
    {
      "children": [
        16
      ],
      "name": "Bone.011_06",
      "rotation": [
        -0.7290007472038269,
        -0.020198389887809753,
        -0.018951987847685814,
        0.683952271938324
      ],
      "translation": [
        2.2803249066782882e-08,
        1.068208932876587,
        -3.486866262392141e-08
      ]
    },
    {
      "name": "Bone.011_end_022",
      "rotation": [
        -6.74416924910248e-40,
        1.943874439499615e-22,
        3.469446951953614e-18,
        1.0
      ],
      "translation": [
        -1.1102230246251565e-16,
        0.6247046589851379,
        2.7755575615628914e-17
      ]
    },
    {
      "children": [
        18
      ],
      "name": "Bone.012_07",
      "rotation": [
        0.6821082830429077,
        -0.14126676321029663,
        0.1455046534538269,
        0.7025669813156128
      ],
      "scale": [
        1.0,
        0.9999999403953552,
        1.0000001192092896
      ],
      "translation": [
        3.3087224502121107e-23,
        2.303196907043457,
        0.0
      ]
    },
    {
      "children": [
        19
      ],
      "name": "Bone.013_08",
      "rotation": [
        0.031224122270941734,
        -0.006366053130477667,
        -0.2057027518749237,
        0.9780956506729126
      ],
      "scale": [
        1.0,
        0.9999998807907104,
        1.0
      ],
      "translation": [
        -2.9802322387695313e-08,
        1.421089768409729,
        9.041275461640907e-08
      ]
    },
    {
      "children": [
        20
      ],
      "name": "Bone.014_09",
      "rotation": [
        -0.7292789816856384,
        0.0015277863712981343,
        0.005635321140289307,
        0.6841915845870972
      ],
      "scale": [
        0.9999999403953552,
        1.0,
        1.0
      ],
      "translation": [
        3.725290298461914e-09,
        1.0682289600372314,
        6.978848432481755e-08
      ]
    },
    {
      "name": "Bone.014_end_023",
      "rotation": [
        3.308722450212111e-24,
        -2.085529119399321e-22,
        -1.734723475976807e-18,
        1.0
      ],
      "translation": [
        0.0,
        0.6351211071014404,
        0.0
      ]
    },
    {
      "children": [
        22
      ],
      "name": "Bone.004_010",
      "rotation": [
        -0.370404452085495,
        2.2422012911036083e-25,
        -7.944935449440352e-17,
        0.9288705587387085
      ],
      "scale": [
        1.0,
        0.9999998807907104,
        1.0
      ],
      "translation": [
        1.1581710451401603e-16,
        -0.3287994861602783,
        -0.40707701444625854
      ]
    },
    {
      "children": [
        23
      ],
      "name": "Bone.005_011",
      "rotation": [
        -0.012322351336479187,
        2.7240784724490212e-17,
        1.8993841993812054e-17,
        0.9999241828918457
      ],
      "scale": [
        1.0,
        0.9999998211860657,
        0.9999998807907104
      ],
      "translation": [
        1.3234889800848443e-23,
        1.1827688217163086,
        2.9802322387695313e-08
      ]
    },
    {
      "children": [
        24
      ],
      "name": "Bone.006_012",
      "rotation": [
        0.21915914118289948,
        4.735852197966174e-17,
        1.6189113080766868e-16,
        0.9756891131401062
      ],
      "scale": [
        1.0,
        1.0000001192092896,
        0.9999999403953552
      ],
      "translation": [
        -3.556876633978019e-23,
        0.8415181636810303,
        0.0
      ]
    },
    {
      "children": [
        25
      ],
      "name": "Bone.007_013",
      "rotation": [
        0.024141546338796616,
        -1.191745582218573e-07,
        -2.8779034710879614e-09,
        0.9997086524963379
      ],
      "scale": [
        1.0,
        0.9999998807907104,
        0.9999999403953552
      ],
      "translation": [
        -3.944304526105059e-31,
        0.8655526041984558,
        -5.960464477539063e-08
      ]
    },
    {
      "children": [
        26
      ],
      "name": "Bone.008_014",
      "rotation": [
        0.19506652653217316,
        -6.3834105441308055e-15,
        -4.650747342793693e-08,
        0.9807900190353394
      ],
      "translation": [
        -1.461411354886262e-14,
        0.6512844562530518,
        -1.7881393432617188e-07
      ]
    },
    {
      "name": "Bone.008_end_024",
      "rotation": [
        1.3877787807814457e-17,
        1.3234889800848443e-23,
        3.308722450212111e-24,
        1.0
      ],
      "translation": [
        0.0,
        0.7922372817993164,
        0.0
      ]
    },
    {
      "children": [
        28
      ],
      "name": "Bone.015_015",
      "rotation": [
        -0.039831824600696564,
        -0.3085443377494812,
        0.9425538778305054,
        -0.12168080359697342
      ],
      "scale": [
        0.9999998807907104,
        0.9999997019767761,
        0.9999995231628418
      ],
      "translation": [
        1.1581710451401603e-16,
        -0.3287994861602783,
        -0.40707701444625854
      ]
    },
    {
      "children": [
        29
      ],
      "name": "Bone.016_016",
      "rotation": [
        0.5259407162666321,
        -0.0678972527384758,
        -0.10854846984148026,
        0.8408291339874268
      ],
      "scale": [
        1.0,
        0.9999999403953552,
        1.0
      ],
      "translation": [
        -1.4901161193847656e-08,
        1.9576237201690674,
        -2.0805657641176367e-08
      ]
    },
    {
      "children": [
        30
      ],
      "name": "Bone.017_017",
      "rotation": [
        0.504288911819458,
        2.111590680087261e-09,
        -2.000455481265817e-07,
        0.8635349869728088
      ],
      "scale": [
        1.0,
        0.9999999403953552,
        0.9999999403953552
      ],
      "translation": [
        2.3212976429931587e-08,
        1.0605477094650269,
        9.015582236315822e-08
      ]
    },
    {
      "name": "Bone.017_end_025",
      "translation": [
        -5.551115123125783e-17,
        0.5676509737968445,
        0.0
      ]
    },
    {
      "children": [
        32
      ],
      "name": "Bone.018_018",
      "rotation": [
        0.03985384851694107,
        -0.30782249569892883,
        0.9427401423454285,
        0.12205760926008224
      ],
      "scale": [
        0.9999999403953552,
        0.9999998211860657,
        0.9999998807907104
      ],
      "translation": [
        1.1581710451401603e-16,
        -0.3287994861602783,
        -0.40707701444625854
      ]
    },
    {
      "children": [
        33
      ],
      "name": "Bone.019_019",
      "rotation": [
        0.5239608883857727,
        0.06783737242221832,
        0.10901571065187454,
        0.8420087099075317
      ],
      "scale": [
        1.0000001192092896,
        1.0000001192092896,
        1.0
      ],
      "translation": [
        5.960464477539063e-08,
        1.9595903158187866,
        3.1830040825298056e-09
      ]
    },
    {
      "children": [
        34
      ],
      "name": "Bone.020_020",
      "rotation": [
        0.5067932605743408,
        1.11512932221558e-08,
        -1.8913956978394708e-07,
        0.8620676398277283
      ],
      "translation": [
        -1.2971241858394933e-08,
        1.0578813552856445,
        7.513881428167224e-08
      ]
    },
    {
      "name": "Bone.020_end_026",
      "rotation": [
        1.3877787807814457e-17,
        1.4889251025954498e-23,
        -1.3234889800848443e-23,
        1.0
      ],
      "translation": [
        5.551115123125783e-17,
        0.5747857093811035,
        0.0
      ]
    }
  ],
  "samplers": [
    {
      "magFilter": 9728,
      "minFilter": 9728,
      "wrapS": 10497,
      "wrapT": 10497
    }
  ],
  "scene": 0,
  "scenes": [
    {
      "name": "Sketchfab_Scene",
      "nodes": [
        0
      ]
    }
  ],
  "skins": [
    {
      "inverseBindMatrices": 4,
      "joints": [
        5,
        8,
        9,
        10,
        11,
        12,
        13,
        14,
        15,
        16,
        17,
        18,
        19,
        20,
        21,
        22,
        23,
        24,
        25,
        26,
        27,
        28,
        29,
        30,
        31,
        32,
        33,
        34
      ],
      "skeleton": 5
    }
  ],
  "textures": [
    {
      "sampler": 0,
      "source": 0
    }
  ]
}
